# xmcd
#
# Track frame offsets:
#	150
#	13577
#	27702
#	44619
#	62040
#	76254
#	90314
#	102597
#	117906
#	130842
#	147187
#	162835
#	177744
#	193048
#
# Disc length: 2782 seconds
#
# Revision: 1
# Processed by: cddbd v1.5.2PL0 Copyright (c) Steve Scherf et al.
# Submitted via: audiograbber 1.83.01
#
DISCID=c20adc0e
DTITLE=Hans Petter's Orkester - Takk for sist
DYEAR=2007
DGENRE=Danseband
TTITLE0=Takk for sist
TTITLE1=Du er den jeg vil ha
TTITLE2=Den beste jenta
TTITLE3=Drømmeland
TTITLE4=Ja eller nei
TTITLE5=Er du alene
TTITLE6=Isabelle
TTITLE7=Skoleballet
TTITLE8=I min verden
TTITLE9=En tanke tilbake
TTITLE10=Duften av ditt hår
TTITLE11=To uker i desember
TTITLE12=Alle nettene
TTITLE13=Jeg er beruset av kjærlighet
EXTD=
EXTT0=
EXTT1=
EXTT2=
EXTT3=
EXTT4=
EXTT5=
EXTT6=
EXTT7=
EXTT8=
EXTT9=
EXTT10=
EXTT11=
EXTT12=
EXTT13=
PLAYORDER=
